<svg width="24" height="24" viewBox="0 0 24 24" fill="none" xmlns="http://www.w3.org/2000/svg">
<path d="M13.3331 0.769619C12.508 0.293265 11.4915 0.293265 10.6664 0.769619L9.07378 1.68911L9.42681 2.8926L10.3189 4.51719L10.5135 3.43683L10.7239 4.59012L11.0316 5.20322L10.7457 2.92096L10.1601 1.14242L11.3529 2.92096L11.6195 1.59618L12.1456 3.66101L12.8297 5.66643L13.0431 4.86832L13.1945 3.64076L13.4293 4.659L13.7491 5.20458L13.6481 3.4436L13.8414 1.59618L14.1395 3.81092L14.8966 5.41121L15.2857 3.25049L15.6735 2.12089L13.3331 0.769619Z" fill="white"/>
<path d="M16.1932 2.42093L16.0713 3.53138L16.4753 2.5838L16.1932 2.42093Z" fill="white"/>
<path d="M16.7024 2.7149L16.6775 2.87372L16.8582 4.57934L16.6553 8.02839L17.1538 5.25996L17.8253 3.36324L16.7024 2.7149Z" fill="white"/>
<path d="M18.593 3.80644L18.4467 6.11627L17.5382 7.7691L19.4195 5.25996L20.2071 4.73834L18.593 3.80644Z" fill="white"/>
<path fill-rule="evenodd" clip-rule="evenodd" d="M20.8443 5.10626L18.4467 8.14183L17.5541 10.0027L17.2687 11.2802L17.15 11.2533H17.0056L16.8287 10.9427L16.689 11.0076L16.6052 10.8408L16.512 10.901L16.4701 10.6276L16.3258 10.7712V10.558L16.1651 10.7467C16.1542 10.7407 16.1432 10.7348 16.1321 10.7289L16.0836 10.558L15.9392 10.6276L15.8368 10.4051H15.6272L15.5248 10.2614H15.3758L15.1662 10.1455L14.9753 10.1038V9.88129L14.8915 10.1038L14.7797 9.88129L14.6447 10.0064L14.5003 9.71906L14.3373 9.88129L14.2256 9.71906L14.1091 9.8303L13.8862 9.71906L13.6862 9.75806L13.5876 9.58294L13.5529 9.75806L13.4106 9.69418L13.2999 9.85641L13.1033 9.7359V9.9074L12.9915 9.80542L12.8891 9.9074L12.754 9.7359L12.6862 9.95806L12.4793 9.80542V9.98156L12.293 10.0064L12.1812 9.8303L12.2195 10.0496L12.0183 10.0064V10.1038L11.7109 9.76078L11.9251 10.1455H11.7109L11.0822 9.36215L11.3803 9.88129L11.5529 10.1872H11.3384L11.0822 9.93228L11.2033 10.2614V10.4051L11.0822 10.3031L10.8587 10.0064L10.9472 10.4051V10.5024L10.7563 10.4051L10.5793 10.1038L10.6631 10.4051L10.7144 10.5858L10.5793 10.558V10.6878L10.2813 10.5024L10.4536 10.8408H10.1183L10.3651 11.054H10.1788L10.3651 11.2533H10.1183L10.1788 11.4063L9.92271 11.4526L10.0531 11.5963L10.0019 11.7539H10.0531L9.92271 11.893L10.0019 11.9949L9.89012 12.0274L9.74576 12.0969L9.89012 12.1989L10.0006 12.2539L10.0004 12.2554L9.89012 12.324L9.98866 12.3976C9.98804 12.4116 9.98759 12.4255 9.98728 12.4391L9.92271 12.579H9.98889C9.99172 12.6434 9.99698 12.702 10.0022 12.7541L10.0019 12.7551L10.0023 12.7555L10.0045 12.7775L10.0058 12.7901C10.0132 12.8632 10.0192 12.9217 10.0154 12.9639C9.50091 13.5888 9.59419 14.2736 9.67236 14.7412C9.70667 14.7755 9.73385 14.8116 9.75286 14.8496C9.88029 15.1045 10.0904 15.2441 10.2769 15.3681C10.3831 15.4387 10.4816 15.5042 10.5529 15.5829C10.5837 15.6171 10.612 15.6487 10.6383 15.6782C10.6618 15.7045 10.6837 15.7291 10.7045 15.752C10.6981 15.74 10.692 15.7281 10.6862 15.7163C11.1794 16.1829 11.7529 15.7829 11.5529 15.3823C11.4 15.0761 11.236 14.6004 11.6862 14.5163C12.127 14.4339 12.5458 14.7129 12.9859 15.0061C13.4089 15.2879 13.8517 15.5829 14.3529 15.5829C14.6439 15.5829 14.4836 15.3185 14.3401 15.0817C14.2206 14.8847 14.1127 14.7067 14.2862 14.7163C14.6669 14.7372 14.9054 14.8744 15.1584 15.0199C15.3485 15.1293 15.5467 15.2433 15.8195 15.3163C16.2486 15.431 16.3222 15.0085 15.8594 14.8038C15.7831 14.77 15.7074 14.7398 15.6376 14.7119C15.3888 14.6125 15.2148 14.543 15.3529 14.4496C15.4614 14.3762 15.6429 14.3844 15.8447 14.3936L15.8451 14.3936C15.8726 14.3948 15.9005 14.3961 15.9287 14.3972C15.7655 14.2174 15.37 14.1406 15.0054 14.0699C14.5173 13.9752 14.0848 13.8912 14.3406 13.5853C14.5724 13.3078 14.9004 13.2652 15.2122 13.2731C15.1222 13.3036 15.0862 13.5163 15.2862 13.5829C15.4174 13.4845 15.6851 13.5895 15.8804 13.666C16.082 13.745 16.2064 13.7938 16.0233 13.5571C16.1926 13.6062 16.3678 13.7075 16.549 13.8124C16.7723 13.9415 17.0048 14.076 17.2469 14.1247C17.5715 14.2948 17.7676 14.1069 17.8612 14.0172C17.9399 13.9417 17.9461 13.9357 17.8955 14.2702C17.9718 14.2917 18.043 14.2017 18.0873 14.1458C18.1402 14.079 18.1547 14.0607 18.0937 14.3382C18.0968 14.3378 18.1045 14.3276 18.1166 14.3115C18.1831 14.223 18.3831 13.9568 18.6863 14.1832C18.8647 14.3164 18.7908 14.4031 18.6671 14.5482C18.5627 14.6706 18.4229 14.8347 18.3694 15.1036C18.2862 15.522 18.3914 15.8345 18.4797 16.0969L18.4862 16.1163C18.3504 15.961 18.2831 15.7018 18.2156 15.4416C18.1157 15.0568 18.0153 14.6697 17.6915 14.613C17.6503 14.64 17.5927 14.7118 17.5326 14.7867C17.4026 14.9487 17.2605 15.1256 17.246 14.8984C16.8438 14.8112 16.3784 15.154 16.1186 15.4947C16.0791 15.6083 15.9358 15.7234 15.7918 15.8388C15.5654 16.0205 15.3376 16.2032 15.511 16.3834C15.6797 16.7571 15.4027 17.0059 14.7769 17.5681C14.7604 17.5828 14.7438 17.5978 14.7269 17.613C14.7135 17.6251 14.6999 17.6373 14.6862 17.6496C14.3224 17.977 14.5125 18.2671 15.0862 17.9486C16.1784 17.3423 16.7013 17.3196 17.4969 17.395C17.2876 17.2629 17.2999 17.093 17.3115 16.9328C17.3217 16.7921 17.3313 16.6589 17.1895 16.5654C17.1733 16.5574 17.1569 16.5495 17.1405 16.5415C16.9893 16.4683 16.8329 16.3926 16.7552 16.2238C16.8495 15.9037 17.6871 16.1239 17.9417 16.363C18.0782 16.4872 18.2683 16.4157 18.4163 16.3036C18.5505 16.4478 18.3475 16.5192 18.121 16.5989C17.941 16.6622 17.7462 16.7307 17.694 16.8452C17.4618 17.0049 17.5466 17.2147 17.625 17.4087C17.7076 17.6128 17.7831 17.7995 17.475 17.8923C17.384 17.91 17.3752 18.0026 17.3667 18.0918C17.3637 18.124 17.3606 18.1558 17.3538 18.1835C17.6336 18.4914 17.5326 18.6065 17.3801 18.7803C17.2688 18.9071 17.1302 19.065 17.0917 19.3516C17.3609 20.7197 15.567 21.1196 14.7255 20.3039C14.5187 20.1035 14.347 19.9289 14.1921 19.7619L13.9987 20.0325C13.8084 20.2989 13.7997 20.6544 13.9766 20.9299L14.7951 22.2041C14.8266 22.253 14.8399 22.3081 14.8371 22.3616L21.0587 18.7696C21.8838 18.2933 22.392 17.4129 22.392 16.4602V7.53942C22.392 6.58671 21.8838 5.70637 21.0587 5.23002L20.8443 5.10626ZM10.4916 14.0644C10.6325 14.0301 10.7745 13.9939 10.9144 13.9526C11.0179 13.9221 11.0195 13.8496 10.8943 13.8669C10.8726 13.8699 10.8515 13.8746 10.8313 13.8791C10.7583 13.8953 10.6965 13.909 10.6544 13.8329C10.6162 13.7637 10.6645 13.7204 10.7114 13.6783C10.7277 13.6637 10.7437 13.6493 10.756 13.634C10.8943 13.4622 10.6862 13.3163 10.5489 13.4452L10.5331 13.46C10.371 13.6124 10.2495 13.7266 10.0491 13.7729C9.95501 13.7944 9.90372 13.7823 9.92631 13.6647C9.99695 13.2948 10.1994 13.0682 10.4529 13.0677C10.7782 13.0668 11.0124 13.2988 11.089 13.704C11.1184 13.8592 11.1563 14.0035 11.3263 14.0674C11.3598 14.08 11.3701 14.1163 11.3478 14.1395C11.2721 14.2179 11.2416 14.3151 11.2113 14.4118C11.1958 14.4614 11.1803 14.5109 11.1587 14.5577C11.138 14.6034 11.0684 14.6046 10.9755 14.6063C10.8881 14.6079 10.7801 14.6098 10.6727 14.6495C10.1144 14.8555 9.95285 14.1829 10.4916 14.0644ZM16.7995 15.5812C16.6975 15.6291 16.5925 15.6812 16.5078 15.7538C16.2613 15.9644 16.0998 16.2373 15.9383 16.5103C15.8091 16.7285 15.6799 16.9468 15.5071 17.1335C15.5033 17.1377 15.5019 17.1441 15.5005 17.1507C15.4998 17.1539 15.4992 17.1572 15.4982 17.1601C15.515 17.1485 15.531 17.1357 15.5461 17.1219C15.6774 16.9825 15.8017 16.8362 15.926 16.6899C16.2289 16.3335 16.5319 15.977 16.9353 15.7198C16.947 15.7127 16.9547 15.7 16.9633 15.6859C16.9676 15.6789 16.9721 15.6714 16.9774 15.6642C16.9311 15.5962 16.8772 15.5447 16.7995 15.5812ZM11.4592 15.5808C11.5623 15.4103 11.3898 15.1633 11.1608 15.1519C11.0162 15.1446 10.8898 15.188 10.8195 15.3163C10.767 15.4121 10.7897 15.5359 10.8195 15.6282C10.8472 15.7116 10.8966 15.689 10.9478 15.6656C10.957 15.6614 10.9663 15.6572 10.9754 15.6536C11.0173 15.6351 11.0633 15.6276 11.1089 15.6319C11.1545 15.6362 11.1982 15.6521 11.236 15.6781C11.3404 15.7485 11.4032 15.6735 11.4592 15.5808Z" fill="white"/>
<path d="M6.70566 20.9433C6.67045 20.8576 6.68049 20.7552 6.74323 20.676L8.08544 18.9821L8.08618 18.9829L10.4195 20.5829L9.35285 19.6496L8.21373 18.6903C8.25878 18.2965 8.19246 17.9858 8.01952 17.3163L8.81952 17.9841L8.82007 17.9835L9.95286 19.2496L12.2862 20.8496L11.2195 19.9163L9.95286 18.8496L9.14553 17.6076C9.32458 17.3729 9.51746 17.0633 9.55286 16.7829C9.58888 16.4976 9.55321 16.3292 9.48619 16.0496C9.36125 15.5283 8.81952 14.8496 8.81952 14.8496L7.94267 14.517L6.98827 14.517L5.17012 14.5348L3.3544 14.8333L2.06496 15.1697L3.05885 13.8758L4.18744 13.8002L2.94147 13.3667L1.60742 13.3825V16.4602C1.60742 17.4129 2.11569 18.2933 2.94076 18.7696L6.70566 20.9433Z" fill="white"/>
<path d="M1.60742 13.1968L2.94147 12.6665L3.74348 12.3957L1.60742 11.9629V13.1968Z" fill="white"/>
<path d="M1.60742 11.7194L3.95689 11.5976L2.74463 11.1772L1.93238 10.7569L3.95018 11.2478L3.04045 10.108L4.68595 10.7651L5.49592 11.1776L2.75286 9.23969L4.97231 9.82849L4.0328 9.24104L2.55286 7.76231L4.75286 9.11627L5.55422 9.30587L5.07503 8.87102L4.172 8.08101L4.82266 8.33759L6.57759 8.6536L5.11026 7.9014L3.70373 6.81158L6.18897 7.32881L7.43494 7.76231L6.8694 7.03307L5.28345 5.00469L4.88932 4.10501L2.94076 5.23002C2.11569 5.70637 1.60742 6.58671 1.60742 7.53942V11.7194Z" fill="white"/>
<path d="M5.06486 4.00366L5.40504 4.32946L6.77509 5.62185L6.61453 4.96553L8.22355 6.09181L8.97608 6.75016L8.82982 5.97271L7.61953 4.4496L7.35286 3.0533L8.02233 4.16309L8.7707 5.20458L9.31761 5.66643L8.7707 3.0533L8.77493 1.86165L5.06486 4.00366Z" fill="white"/>
<path d="M16.4638 17.7425C16.4147 17.6803 16.3654 17.7031 16.3203 17.7362C16.2627 17.7785 16.1998 17.8313 16.2237 17.9113C16.2388 17.962 16.2854 17.9668 16.332 17.9715C16.3459 17.973 16.3597 17.9744 16.3728 17.977C16.4431 17.9914 16.5131 18.0085 16.583 18.0256L16.5833 18.0257C16.6592 18.0442 16.7348 18.0627 16.8104 18.0776C16.8259 18.0807 16.8414 18.0838 16.8569 18.0869C16.987 18.113 17.1185 18.1395 17.2488 18.137C17.2724 18.1365 17.2956 18.0649 17.3145 18.0065C17.3219 17.9834 17.3287 17.9624 17.3346 17.9486C17.3221 17.803 17.3105 17.7661 17.1653 17.8105C17.1328 17.8205 17.0978 17.7912 17.0574 17.7573C16.9928 17.7031 16.9142 17.6371 16.8088 17.7006C16.7242 17.5318 16.6467 17.6069 16.5641 17.7043C16.5588 17.7105 16.554 17.7203 16.5489 17.7305C16.5321 17.7645 16.5123 17.8043 16.4638 17.7425Z" fill="white"/>
<path d="M16.1596 18.0556C15.749 17.9229 15.6082 17.9809 15.3514 18.3466C15.2464 18.4964 15.2918 18.5583 15.4676 18.5893C15.5975 18.6124 15.7026 18.583 15.8146 18.5517C15.9 18.5278 15.9893 18.5028 16.0965 18.4991C16.3705 18.4898 16.5924 18.5383 16.8097 18.5859C16.9138 18.6087 17.0169 18.6313 17.1241 18.6471C17.1639 18.6531 17.1815 18.6498 17.1696 18.6052C17.1611 18.5737 17.1529 18.5421 17.1448 18.5105C17.1258 18.4365 17.1068 18.3625 17.0831 18.29C17.0762 18.2747 17.0662 18.2609 17.0537 18.2496C17.0412 18.2384 17.0265 18.2299 17.0105 18.2247C16.9725 18.2141 16.9605 18.243 16.9479 18.2734L16.9449 18.2808C16.9437 18.2837 16.9424 18.2866 16.9411 18.2895C16.9363 18.2999 16.9342 18.3132 16.9321 18.3266C16.927 18.3582 16.9219 18.3901 16.8817 18.3855C16.8387 18.3806 16.8362 18.3422 16.834 18.3058C16.8332 18.2938 16.8325 18.282 16.8303 18.2717L16.8299 18.2702C16.8186 18.2178 16.8083 18.1701 16.7443 18.157C16.6886 18.1456 16.6346 18.15 16.605 18.1998C16.5548 18.2841 16.5378 18.2484 16.5191 18.2094C16.5136 18.1978 16.5079 18.1859 16.5012 18.1768C16.4906 18.1623 16.4811 18.1403 16.4715 18.1181C16.4497 18.0677 16.4277 18.0167 16.3923 18.0535C16.3174 18.1323 16.274 18.11 16.2192 18.0819C16.2011 18.0726 16.1817 18.0627 16.1596 18.0556Z" fill="white"/>
<path d="M15.0006 19.335C14.9702 19.3323 14.9415 19.3297 14.9187 19.3606C14.8875 19.4025 14.8941 19.4446 14.9187 19.4888C14.9863 19.6077 15.0788 19.7106 15.1898 19.7905C15.3009 19.8704 15.4278 19.9253 15.5621 19.9516C15.6373 19.9672 15.715 19.9663 15.7899 19.9488C15.8223 19.9412 15.8546 19.9341 15.8868 19.9271C16.0871 19.8836 16.2812 19.8413 16.4482 19.6646C16.6062 19.498 16.6539 19.2137 16.603 19.1511C16.537 19.0699 16.0178 19.2456 15.963 19.266C15.7253 19.3546 15.5375 19.3476 15.3257 19.3396C15.2345 19.3362 15.1388 19.3326 15.0327 19.3365C15.0219 19.3369 15.0112 19.3359 15.0006 19.335Z" fill="white"/>
<path d="M19.4327 5.25148L19.7745 2.46154L18.7647 3.87228L18.5457 4.55557L18.4468 6.11639L17.5383 7.76922L19.4197 5.26008L19.4327 5.25148Z" fill="#28A0F0"/>
<path d="M3.00388 13.9477L3.05901 13.8759L4.1876 13.8003L2.94163 13.3668L2.31514 13.3742L1.49512 13.8927L3.00388 13.9477Z" fill="#28A0F0"/>
<path d="M2.93097 10.9999L3.95035 11.2479L3.51937 10.708L1.66642 10.2171L2.93097 10.9999Z" fill="#28A0F0"/>
<path d="M4.07099 10.5196L4.68611 10.7652L5.49608 11.1777L4.36336 10.3775L4.07099 10.5196Z" fill="#28A0F0"/>
<path d="M3.73641 9.93455L2.75303 9.23982L4.97247 9.82861L4.37672 9.4561L4.3352 9.49782L2.08636 8.71639L3.21969 9.84972L3.73641 9.93455Z" fill="#28A0F0"/>
<path d="M4.7293 9.10179L4.75303 9.11639L5.55438 9.30599L5.07519 8.87114L4.54461 8.40696L3.13726 8.04972L4.89198 8.9383L4.7293 9.10179Z" fill="#28A0F0"/>
<path d="M5.2498 8.4146L6.57775 8.65372L5.59821 8.15158L5.2498 8.4146Z" fill="#28A0F0"/>
<path d="M5.71147 7.22952L6.18913 7.32893L7.4351 7.76243L6.86956 7.03319L6.56269 6.64071L6.34638 6.74505L6.98303 7.24154L5.41969 6.38306L4.21647 5.95666L5.28636 6.74505L5.71147 7.22952Z" fill="#28A0F0"/>
<path d="M6.65787 5.14213L6.38436 4.72702L6.4938 3.83371L7.00281 4.80279L7.86783 5.84282L6.61469 4.96565L6.65787 5.14213Z" fill="#28A0F0"/>
<path d="M8.0226 5.95115L8.22371 6.09193L8.97624 6.75028L8.82998 5.97283L7.84569 4.73413L8.0226 5.95115Z" fill="#28A0F0"/>
<path d="M8.76144 4.11151L7.47784 3.26032L8.0225 4.16321L8.77086 5.2047L9.31777 5.66655L8.77086 3.05342L8.77208 2.70988L8.66336 2.63479L8.76144 4.11151Z" fill="#28A0F0"/>
<path d="M9.66534 3.3268L10.3191 4.51731L10.5136 3.43695L10.7241 4.59024L11.0318 5.20334L10.7459 2.92108L10.6155 2.52521L9.94234 2.44274L10.0138 3.56746L9.66534 3.3268Z" fill="#28A0F0"/>
<path d="M11.6659 1.7778L11.6491 1.60561L12.353 0.383057V2.44274L13.107 4.35214L13.0433 4.86844L12.8299 5.66655L12.1457 3.66113L11.6659 1.7778Z" fill="#28A0F0"/>
<path d="M13.3583 4.35068L13.4294 4.65912L13.7493 5.2047L13.6595 3.63876L13.3583 4.35068Z" fill="#28A0F0"/>
<path d="M13.8422 1.60112L14.1396 3.81104L14.8967 5.41133L15.2746 3.31286L13.8422 1.60112Z" fill="#28A0F0"/>
<path d="M16.8666 1.66661L16.6777 2.87384L16.8584 4.57946L16.6554 8.0285L17.1539 5.26008L17.7013 3.71408L17.5699 3.37717L16.8666 1.66661Z" fill="#28A0F0"/>
<path d="M19.4327 5.25144L18.7332 5.66651L18.7999 4.99989L18.5457 4.55552L18.4469 6.11634L17.5384 7.76918L19.4197 5.26004L19.4327 5.25144Z" fill="#13888F"/>
<path d="M3.00392 13.9476L3.05904 13.8759L4.18763 13.8002L2.94166 13.3667V13.5999L2.3999 13.7332L3.00392 13.9476Z" fill="#13888F"/>
<path d="M2.931 10.9999L3.95038 11.2479L3.5194 10.7079L3.3999 10.9332L2.931 10.9999Z" fill="#13888F"/>
<path d="M4.80993 10.7651H4.68614L5.49611 11.1777L4.3634 10.3774L4.80993 10.7651Z" fill="#13888F"/>
<path d="M3.73644 9.9345L2.75306 9.23977L4.9725 9.82857L4.37675 9.45606L4.1999 9.53322L2.75306 9.23977L3.21973 9.84968L3.73644 9.9345Z" fill="#13888F"/>
<path d="M4.72933 9.10174L4.75306 9.11634L5.55441 9.30594L5.07523 8.8711L4.80993 8.639L4.86657 8.79989L4.1999 8.46655L4.89201 8.93826L4.72933 9.10174Z" fill="#13888F"/>
<path d="M5.24983 8.41455L6.57778 8.65368L5.59824 8.15153L5.93324 8.41455H5.24983Z" fill="#13888F"/>
<path d="M5.7115 7.22947L6.18917 7.32889L7.43514 7.76239L6.86959 7.03314L6.98307 7.24149L6.06657 6.79989L5.86657 6.99989L5.28639 6.74501L5.7115 7.22947Z" fill="#13888F"/>
<path d="M6.6579 5.14208L6.38439 4.72698L6.98307 4.9656L7.00284 4.80274L7.86787 5.84277L6.61473 4.9656L6.6579 5.14208Z" fill="#13888F"/>
<path d="M8.02263 5.95111L8.22375 6.09188L8.97627 6.75023L8.83001 5.97278L8.33324 5.84277L7.93418 5.3426L8.02263 5.95111Z" fill="#13888F"/>
<path d="M8.26657 3.92201L8.53324 4.51726L8.02253 4.16316L8.7709 5.20466L9.3178 5.66651L8.77089 3.05337L8.86657 4.11147L8.93324 4.73409L8.26657 3.92201Z" fill="#13888F"/>
<path d="M10.1999 3.99989L9.99225 3.92201L10.3191 4.51726L10.5137 3.43691L10.7241 4.59019L11.0318 5.2033L10.8889 4.06217L10.8174 3.4916L10.6156 3.26028L10.2666 2.87379V3.73322L10.1999 3.99989Z" fill="#13888F"/>
<path d="M11.666 1.77776L11.8666 2.06655L12.0666 2.87379L12.2666 2.33322L12.3999 3.66109L12.5999 3.53322L12.7999 4.73322L13.107 4.3521L13.0433 4.86839L12.8299 5.66651L12.1458 3.66109L11.666 1.77776Z" fill="#13888F"/>
<path d="M13.3583 4.35063L13.4295 4.65907L13.7493 5.20466L13.6595 3.63871L13.3583 4.35063Z" fill="#13888F"/>
<path d="M13.8423 1.60107L14.1397 3.81099L14.8968 5.41128L15.0857 4.36205L15.1802 3.83743L14.8968 4.06656L14.7999 3.53322L14.5999 2.79989L14.3999 3.32675L13.8423 1.60107Z" fill="#13888F"/>
<path d="M17.154 3.93322L16.9999 4.13322L16.6777 2.87379L16.8584 4.57941L16.6554 8.02846L17.154 5.26004L17.7014 3.71403L17.1332 4.66656L17.154 3.93322Z" fill="#13888F"/>
<path d="M14.8918 10.1027L15.8663 8.53321L14.933 9.41428L15.3997 7.99987L14.8663 8.86654L14.9997 7.51693L14.5002 8.39987L14.3997 7.79987L14.2663 8.59987L14.1997 8.26654L14.1091 7.1332L13.8663 7.93321L13.6861 6.5332L13.4663 7.99987L13.2999 6.99987L13.133 8.19987L12.933 7.59987L12.4792 7.99987L12.0182 6.73321L12.133 7.93321L11.5997 6.9332V8.53321L11.2033 7.51693L10.7562 6.73321L10.9997 7.86654L10.365 6.9332V7.99987L10.053 7.59987L9.33301 7.26654L9.7528 7.93321V8.53321L9.33529 8.39987L8.66634 7.93321L8.99967 8.9332L9.24517 9.36221L9.13301 9.46654L8.66634 8.99987L7.77975 8.86654L8.66634 9.69423L8.86634 9.90745L8.33301 9.88135L7.66634 9.76083L8.49575 10.4051L9.19967 10.8665L8.86634 10.7999L7.06634 10.1027L8.14263 10.8408L7.06634 10.5859L8.14263 11.1175L7.26634 11.054L8.2189 11.3856L7.77975 11.4063L7.33301 11.4527L6.73301 11.5964L7.59967 11.995L7.26634 12.097L6.53301 12.3241H7.59967L8.33301 12.5332L7.73301 12.7552L6.73301 12.8015L7.46634 13.1999L7.99967 13.2665L7.73301 13.3332L7.33301 13.4665L6.33301 13.9163H7.77975L8.2189 14.0497L8.9349 14.3862L9.33529 14.4483L9.7528 14.8497C9.55951 14.1409 9.58195 13.4409 10.1182 13.0356V12.8849H10.053V12.8015L10.0018 12.7552L10.053 12.579H9.92265L10.0018 12.4075L9.89005 12.3241L10.0018 12.2546L9.89005 12.1989L9.74569 12.097L9.89005 12.0274L10.0018 11.995L9.92265 11.893L10.053 11.754H10.0018L10.053 11.5964L9.92265 11.4527L10.1788 11.4063L10.1182 11.2534H10.365L10.1788 11.054H10.365L10.1182 10.8408H10.4535L10.2812 10.5025L10.5793 10.6879V10.5581L10.7143 10.5859L10.6631 10.4051L10.5793 10.1038L10.7562 10.4051L10.9471 10.5025V10.4051L10.8587 10.0065L11.0822 10.3031L11.2033 10.4051V10.2614L11.0822 9.93233L11.3383 10.1873H11.5528L11.3802 9.88135L11.0822 9.36221L11.7108 10.1456H11.9251L11.7108 9.76083L12.0182 10.1038V10.0065L12.2195 10.0497L12.1812 9.83036L12.2929 10.0065L12.4792 9.98162V9.80548L12.6861 9.95811L12.754 9.73595L12.889 9.90745L12.9915 9.80548L13.1032 9.90745V9.73595L13.2999 9.85647L13.4106 9.69423L13.5528 9.75811L13.5875 9.58299L13.6861 9.75811L13.8861 9.71911L14.1091 9.83036L14.2255 9.71911L14.3373 9.88135L14.5002 9.71911L14.6446 10.0065L14.7796 9.88135L14.8914 10.1038L14.8918 10.1027Z" fill="#28A0F0"/>
<path d="M14.8922 10.1027L15.0211 9.09012L14.7532 9.71633L14.6335 9.33325L14.5487 9.41429L14.6865 8.04966L14.4198 9.04966L14.2865 8.58299L14.2193 9.41429L13.9616 8.79455V7.51693L13.7229 8.24632L13.6131 7.27857L13.4865 8.38299L13.2122 7.60751V8.99477L13.0198 7.91632L12.8828 8.38299L12.5344 7.00684L12.3721 8.24632L11.8756 7.36915V8.79455L11.551 8.13667L11.236 7.00684V9.09012L10.5821 8.13667V8.79455L10.1763 8.34166L9.4651 7.77436L9.82787 8.46561V8.99477L9.4651 8.79455L8.66859 8.66121L9.24552 8.99477L9.4651 9.60021L9.95675 9.91008L9.24552 9.60021H8.76819L9.24552 10.0197L9.82787 10.3677H8.93526L8.09515 9.71633L8.49611 10.3677L9.82787 11.0399L8.85888 10.9493L7.92808 10.2497L8.49611 10.8397H8.15316L8.49611 11.1163L7.78011 11.2258L8.40542 11.2973L9.04504 11.4594L8.32904 11.5691L7.28649 11.4594L8.32904 11.8497L8.09515 12.1163L7.17867 12.183L8.21926 12.4844L8.85888 12.7227L8.09515 12.8658H7.52712L7.99968 13.1804L8.49611 13.29L8.09515 13.5618H7.61982L6.81982 13.9163H7.78011L8.21926 14.0497L8.93526 14.3862L9.33565 14.4483L9.75316 14.8497C9.55987 14.1409 9.58231 13.4409 10.1186 13.0356V12.8849H10.0534V12.8015L10.0022 12.7552L10.0534 12.579H9.92301L10.0022 12.4075L9.89041 12.3241L10.0022 12.2546L9.89041 12.1989L9.74605 12.097L9.89041 12.0274L10.0022 11.995L9.92301 11.893L10.0534 11.754H10.0022L10.0534 11.5964L9.92301 11.4527L10.1791 11.4063L10.1186 11.2534H10.3654L10.1791 11.0541H10.3654L10.1186 10.8408H10.4539L10.2816 10.5025L10.5796 10.6879V10.5581L10.7147 10.5859L10.6634 10.4051L10.5796 10.1038L10.7566 10.4051L10.9475 10.5025V10.4051L10.859 10.0065L11.0825 10.3032L11.2036 10.4051V10.2614L11.0825 9.93234L11.3387 10.1873H11.5531L11.3806 9.88135L11.0825 9.36221L11.7112 10.1456H11.9254L11.7112 9.76084L12.0185 10.1038V10.0065L12.2198 10.0497L12.1815 9.83036L12.2933 10.0065L12.4796 9.98162V9.80548L12.6865 9.95811L12.7543 9.73596L12.8894 9.90746L12.9918 9.80548L13.1036 9.90746V9.73596L13.3002 9.85647L13.4109 9.69424L13.5531 9.75811L13.5879 9.58299L13.6865 9.75811L13.8865 9.71912L14.1094 9.83036L14.2259 9.71912L14.3376 9.88135L14.5006 9.71912L14.645 10.0065L14.78 9.88135L14.8918 10.1038L14.8922 10.1027Z" fill="#28A0F0"/>
<path d="M18.3529 11.7163L18.2195 11.6496L18.1529 11.583L18.0479 11.5964L17.9529 11.5163L17.8672 11.5361L17.7529 11.4496L17.6862 11.5163L17.4195 11.383L17.2862 11.5163L17.2202 11.3184L17.5331 9.99987L18.3997 8.1332L20.2495 5.86203L19.6862 7.38298L19.4195 8.78297L20.1528 6.51631L21.0392 4.86176L22.1489 3.45386L21.4115 4.67188L21.2485 5.29989L21.0862 5.51631L20.5528 7.31631L20.0862 8.11631L19.2862 9.58297L20.2862 8.24964L20.8195 7.11631L21.0008 6.39098L22.2195 5.18298L21.4173 6.44965L20.7891 7.91001L20.9691 8.08202L22.4716 7.20026L21.9355 7.91001L20.9083 8.55341L20.4654 9.31757L19.4862 10.8496L19.0862 11.583L18.9528 11.6496V11.583L18.8195 11.7163L18.7528 11.6496L18.6862 11.7163H18.5528L18.4862 11.7374L18.4195 11.6496L18.3529 11.7163Z" fill="#28A0F0"/>
<path fill-rule="evenodd" clip-rule="evenodd" d="M20.9669 8.07961L20.9694 8.08198L22.4469 7.21485L21.3333 8.06649L20.7333 8.46649L20.1333 9.46649L19.3333 10.5998L19.7333 9.73315L20.2666 8.99982L20.7333 8.26649L20.9669 8.07961ZM19.4043 9.42573L20.2864 8.2496L20.8197 7.11627L21.0011 6.39094L21.1763 6.21728L20.5333 8.19982L19.8666 9.26649L19.0666 9.99982L19.4043 9.42573ZM20.1636 6.09453L19.0666 7.99982L18.7333 9.46649L18.2666 10.3998L18.9333 9.46649L19.1999 8.59982L19.6113 7.77702L19.6864 7.38293L20.1636 6.09453ZM19.4482 8.63374L19.3999 8.79982L19.4277 8.74127L19.4482 8.63374ZM19.4452 8.70435L20.1531 6.51627L20.9427 5.04224L20.5999 6.26649L19.4452 8.70435Z" fill="#28A0F0"/>
</svg>
