<svg width="24" height="24" viewBox="0 0 24 24" fill="none" xmlns="http://www.w3.org/2000/svg">
<g id="Mask group">
<mask id="mask0_1804_3256" style="mask-type:alpha" maskUnits="userSpaceOnUse" x="0" y="0" width="24" height="24">
<g id="Vector">
<path fill-rule="evenodd" clip-rule="evenodd" d="M18 3.99998C18.5128 3.99998 18.9355 4.38603 18.9933 4.88336L19 4.99998V6.56452L19.116 6.66602L19.393 6.89747C19.4437 6.93849 19.4966 6.98049 19.5514 7.02313C20.0843 7.43755 20.7277 7.85511 21.3162 8.0513C21.8402 8.22594 22.1233 8.79226 21.9487 9.31621C21.774 9.84015 21.2077 10.1233 20.6838 9.94866C20.1787 9.78032 19.6905 9.52643 19.2548 9.25512L19 9.09079V14H22C22.5523 14 23 14.4477 23 15C23 15.5128 22.614 15.9355 22.1166 15.9933L22 16H19V19C19 19.5523 18.5523 20 18 20C17.4872 20 17.0645 19.614 17.0067 19.1166L17 19V16H7V19C7 19.5523 6.55228 20 6 20C5.48717 20 5.06449 19.614 5.00673 19.1166L5 19V16H2C1.44772 16 1 15.5523 1 15C1 14.4871 1.38604 14.0645 1.88338 14.0067L2 14H5V9.09079C4.50407 9.42145 3.92227 9.74665 3.31623 9.94866C2.79228 10.1233 2.22596 9.84015 2.05132 9.31621C1.87667 8.79226 2.15983 8.22594 2.68377 8.0513C3.27233 7.85511 3.91573 7.43755 4.44856 7.02313L4.60703 6.89747L4.88407 6.66602L5 6.56452V4.99998C5 4.4477 5.44772 3.99998 6 3.99998C6.51283 3.99998 6.93551 4.38603 6.99327 4.88336L7 4.99998V6.7219C7.02889 6.7647 7.06369 6.81406 7.10469 6.86873C7.27344 7.09374 7.54437 7.40485 7.93719 7.71911C8.71017 8.33749 9.99292 8.99998 12 8.99998C14.0071 8.99998 15.2898 8.33749 16.0628 7.71911C16.4556 7.40485 16.7266 7.09374 16.8953 6.86873L17 6.7219V4.99998C17 4.4477 17.4477 3.99998 18 3.99998ZM17 9.51694C16.5387 9.84654 15.9864 10.1594 15.3344 10.4121L15 10.5333V14H17V9.51694ZM13 10.9531C12.6815 10.9836 12.3483 11 12 11C11.7678 11 11.5423 10.9927 11.3234 10.9788L11 10.9531V14H13V10.9531ZM7 9.51694V14H9V10.5333L8.66564 10.4121C8.12228 10.2016 7.6482 9.94917 7.23829 9.68015L7 9.51694Z" fill="#A0A3C4"/>
</g>
</mask>
<g mask="url(#mask0_1804_3256)">
<rect id="Rectangle 39528" width="24" height="24" fill="#7EFADD"/>
</g>
</g>
</svg>
