<svg width="24" height="25" viewBox="0 0 24 25" fill="none" xmlns="http://www.w3.org/2000/svg">
<path d="M11.9988 2.5C9.34679 2.5 6.80344 3.55349 4.92822 5.42871C3.053 7.30393 1.99951 9.84728 1.99951 12.4992C1.99931 13.8125 2.2578 15.1129 2.76022 16.3262C3.26264 17.5396 3.99915 18.6421 4.92768 19.5708C5.85622 20.4994 6.95859 21.2361 8.17186 21.7387C9.38512 22.2413 10.6855 22.5 11.9988 22.5C13.3121 22.5002 14.6127 22.2417 15.8261 21.7391C17.0396 21.2366 18.1421 20.5 19.0708 19.5713C19.9995 18.6426 20.7361 17.54 21.2387 16.3266C21.7412 15.1132 21.9997 13.8126 21.9995 12.4992C21.9995 11.186 21.7408 9.88561 21.2382 8.67234C20.7356 7.45908 19.9989 6.35671 19.0703 5.42817C18.1416 4.49964 17.0391 3.76313 15.8258 3.26071C14.6124 2.75829 13.312 2.4998 11.9988 2.5ZM11.0555 17.5568C10.8069 17.3057 10.6673 16.9668 10.6669 16.6135V15.2802C10.6673 15.0421 10.6038 14.8083 10.4832 14.6031C10.3627 14.3978 10.1893 14.2286 9.98123 14.113C9.38085 13.7792 8.52751 13.3206 7.94846 13.025C7.46871 12.7837 7.02379 12.4788 6.6258 12.1183L6.59532 12.0863C6.31026 11.8321 6.05791 11.5434 5.84408 11.2269C5.51342 10.7408 5.01665 10.0078 4.62504 9.41505C5.0421 8.4253 5.65328 7.52917 6.42249 6.7796C7.19169 6.03002 8.10332 5.4422 9.10351 5.05086L9.69932 5.35562C9.801 5.40715 9.91417 5.43178 10.0281 5.42716C10.142 5.42255 10.2528 5.38884 10.3499 5.32925C10.4471 5.26967 10.5274 5.18619 10.5832 5.08677C10.6389 4.98736 10.6683 4.87532 10.6685 4.76133V4.62572C11.1076 4.54643 11.5526 4.50412 11.9988 4.49924L12.8628 5.36324C12.9866 5.48896 13.056 5.65837 13.056 5.83486C13.056 6.01135 12.9866 6.18075 12.8628 6.30648L12.6662 6.49848L12.2365 6.93733C12.2051 6.96786 12.1802 7.00435 12.1632 7.04465C12.1462 7.08496 12.1375 7.12826 12.1375 7.172C12.1375 7.21574 12.1462 7.25905 12.1632 7.29935C12.1802 7.33965 12.2051 7.37614 12.2365 7.40667L12.4285 7.60476C12.4598 7.63529 12.4847 7.67178 12.5017 7.71208C12.5187 7.75239 12.5275 7.79569 12.5275 7.83943C12.5275 7.88317 12.5187 7.92647 12.5017 7.96678C12.4847 8.00708 12.4598 8.04357 12.4285 8.0741L12.0948 8.40781C12.0646 8.43879 12.0286 8.46349 11.9888 8.48049C11.9491 8.49748 11.9064 8.50645 11.8631 8.50686H11.4837C11.3971 8.50681 11.3139 8.54073 11.2521 8.60133L10.8376 9.0021C10.7887 9.05296 10.7562 9.11741 10.7446 9.18702C10.7329 9.25662 10.7425 9.32813 10.7721 9.39219L11.4228 10.689C11.4488 10.7404 11.4611 10.7977 11.4585 10.8552C11.4558 10.9128 11.4383 10.9688 11.4076 11.0176C11.3769 11.0664 11.3341 11.1064 11.2834 11.1337C11.2326 11.161 11.1756 11.1748 11.118 11.1735H10.894C10.8123 11.1728 10.7334 11.1431 10.6715 11.0897L10.289 10.7469C10.2011 10.6708 10.0949 10.6189 9.9808 10.5962C9.86675 10.5735 9.74876 10.5808 9.63837 10.6173L8.34161 11.0516C8.2418 11.0844 8.1549 11.1479 8.09333 11.233C8.03175 11.3181 7.99865 11.4205 7.99875 11.5255C7.99845 11.6181 8.02434 11.7088 8.07341 11.7873C8.12248 11.8657 8.19274 11.9287 8.27608 11.969L8.73323 12.2036C9.12721 12.3977 9.56031 12.4994 9.99951 12.5008C10.4384 12.5008 10.9382 13.636 11.3313 13.8341H14.1123C14.4659 13.8345 14.8049 13.9748 15.0555 14.2242L15.6254 14.7926C15.8636 15.0319 15.9978 15.3555 15.9988 15.6931C15.9971 16.2076 15.7922 16.7005 15.4288 17.0646C15.2628 17.2261 15.0951 17.3922 14.9549 17.5339C14.8312 17.658 14.7424 17.8125 14.6974 17.9819C14.6443 18.2194 14.5787 18.4538 14.5008 18.6844L13.9157 20.257C13.2889 20.4152 12.6452 20.4966 11.9988 20.4992V19.6916C11.9729 18.8846 11.6347 18.1192 11.0555 17.5568ZM19.0433 13.2596C18.8018 13.1992 18.5915 13.0509 18.4536 12.8436L17.7024 11.719C17.5936 11.5554 17.5356 11.3632 17.5356 11.1667C17.5356 10.9701 17.5936 10.778 17.7024 10.6143L18.5191 9.38457C18.6163 9.24099 18.7485 9.12456 18.9031 9.04629L19.1469 8.92438C19.7071 10.0329 19.9994 11.2573 20.0003 12.4992C19.9981 12.8274 19.9757 13.1551 19.9332 13.4806L19.0433 13.2596Z" fill="#7EFADD"/>
</svg>
