<svg width="22" height="24" viewBox="0 0 22 24" fill="none" xmlns="http://www.w3.org/2000/svg">
<g id="Vector">
<path d="M13.3924 10.9966L15.1549 8.00591L19.9056 15.4053L19.9079 16.8254L19.8924 7.05376C19.8868 6.93592 19.853 6.82115 19.7937 6.71913C19.7345 6.61711 19.6516 6.53082 19.552 6.46753L10.9989 1.54763C10.7989 1.44926 10.5451 1.4504 10.3453 1.55075C10.3184 1.56419 10.2929 1.57893 10.2688 1.59499L10.239 1.61373L1.93686 6.42472L1.90468 6.43935C1.86326 6.45838 1.82134 6.48261 1.78209 6.51073C1.62634 6.62186 1.5202 6.78947 1.48632 6.97778C1.48109 7.00637 1.47756 7.03524 1.47575 7.06424L1.4888 15.0272L5.91386 8.16849C6.47103 7.25906 7.68482 6.96612 8.81166 6.98204L10.1342 7.01693L2.34168 19.5139L3.26025 20.0427L11.146 7.02964L14.6316 7.01698L6.76615 20.3584L10.4355 22.4689C10.6012 22.5363 10.7965 22.5397 10.9635 22.4793L19.6368 17.453L17.9786 18.4139L13.3924 10.9966ZM14.0648 20.682L10.7543 15.4861L12.7752 12.0569L17.123 18.9098L14.0648 20.682Z" fill="#2D374B"/>
<path d="M10.7543 15.4861L14.0648 20.682L17.123 18.9098L12.7752 12.0569L10.7543 15.4861ZM19.9079 16.8254L19.9056 15.4053L15.1549 8.00591L13.3924 10.9966L17.9786 18.4139L19.6368 17.453C19.7171 17.3879 19.7828 17.3065 19.8295 17.2143C19.8763 17.1221 19.9031 17.021 19.9082 16.9178L19.9079 16.8254Z" fill="#28A0F0"/>
<path d="M4.93999e-05 18.1645L2.34168 19.5139L10.1342 7.01693L8.81166 6.98204C7.68482 6.96612 6.47103 7.25906 5.91386 8.16849L1.4888 15.0272L4.93999e-05 17.3146V18.1645ZM14.6316 7.01698L11.146 7.02964L3.26025 20.0427L6.01658 21.6296L6.76615 20.3584L14.6316 7.01698Z" fill="white"/>
<path d="M21.3767 6.99904C21.3476 6.27009 20.9529 5.60278 20.3347 5.21428L11.6694 0.231115C11.0579 -0.0768076 10.2939 -0.0772031 9.6813 0.230917C9.60888 0.267449 1.25458 5.1126 1.25458 5.1126C1.13851 5.16836 1.02751 5.23411 0.922829 5.3091C0.370951 5.70462 0.0345542 6.31928 0 6.99454L4.93999e-05 17.3146L1.4888 15.0272L1.47575 7.06424C1.47756 7.03524 1.48109 7.00637 1.48632 6.97778C1.5202 6.78947 1.62634 6.62186 1.78209 6.51073C1.82139 6.48261 10.3184 1.56424 10.3453 1.55075C10.5451 1.4504 10.7989 1.44926 10.9989 1.54763L19.552 6.46753C19.6516 6.53082 19.7345 6.61711 19.7937 6.71913C19.853 6.82115 19.8868 6.93592 19.8924 7.05376L19.8924 16.9178C19.8821 17.1269 19.7995 17.3209 19.6368 17.453L17.9786 18.4139L17.123 18.9098L14.0648 20.682L10.9635 22.4793C10.7965 22.5397 10.6012 22.5363 10.4355 22.4689L6.76615 20.3584L6.01658 21.6296L9.31406 23.5282C9.42311 23.5902 9.52025 23.6452 9.59999 23.6899C9.72342 23.7592 9.80756 23.8055 9.83727 23.8199C10.0716 23.9338 10.4089 24 10.7127 24C10.989 24.0004 11.2629 23.9489 11.5201 23.8481L20.5282 18.6313C21.0452 18.2307 21.3493 17.6266 21.3767 16.9721V6.99904Z" fill="#96BEDC"/>
</g>
</svg>
