<svg width="300" height="70" viewBox="0 0 300 70" fill="none" xmlns="http://www.w3.org/2000/svg">
<path d="M295.243 21.6289L299.999 10.8527L300 10.8501H274.594L272.06 12.17L263.582 31.4074L264.872 33.2829L264.875 33.2873H280.804L277.219 41.1547H279.045L277.77 43.6723H276.071L272.461 51.5928H270.844L266.71 43.5735H260.193L265.937 55.6H279.976L285.367 43.6723H287.261L288.536 41.1547H286.504L291.709 29.6372L290.068 27.5185H274.506L279.598 15.9819H291.203L288.714 21.6289H295.243Z" fill="#FFFA72"/>
<path d="M253.877 34.8882H257.712L259.614 33.4474L272.506 4.90778L269.393 4.90647L267.234 9.68069H262.583L253.773 29.5171H248.389L255.291 13.8332H257.299L258.415 11.3156H256.399L257.147 9.61456L247.952 9.61326L247.202 11.3156H249.199L248.083 13.8332H246.092L228.838 52.9906H238.05L246.023 34.8882H247.485L259.761 61.7425H266.761L253.877 34.8882Z" fill="#FFFA72"/>
<path d="M245.573 13.8332L246.69 11.3156H245.27L249.752 1.16027H242.615L238.134 11.3156H239.457L238.34 13.8332H237.023L231.068 27.3271L229.587 6.83025H220.392L200.038 52.4459H206.233L210.776 42.3667L213.73 42.3715L221.69 24.7599L223.172 45.2228H230.304L244.159 13.8332H245.573Z" fill="#FFFA72"/>
<path d="M173.069 49.9574L174.663 52.3398H198.164L219.238 4.64196H216.148L211.68 14.6872H208.391L193.416 48.5057H184.175L183.512 47.1788L192.547 26.7315H190.817L191.934 24.2139H193.659L195.363 20.3572H186.168L184.461 24.2139H183.215L182.099 26.7315H183.347L173.069 49.9574Z" fill="#FFFA72"/>
<path d="M151.792 10.2149L153.384 8.28941H212.152L213.234 5.76874H110.811L107.581 7.60595L102.571 18.875H104.763L103.646 21.3926H101.451L94.4041 37.2436H93.0224L91.9061 39.7612H93.2847L89.5855 48.0811L92.2019 50.9463H112.478L115.534 44.0947H100.46L102.39 39.7612H100.624L101.741 37.2436H103.511L106.806 29.843H115.863L118.113 25.3968H108.798L110.585 21.3926H112.719L113.835 18.875H111.708L115.572 10.2149H151.792Z" fill="#FFFA72"/>
<path fill-rule="evenodd" clip-rule="evenodd" d="M100.918 21.3926L102.034 18.875H100.443L102.708 13.5818L98.6732 9.54669H78.1359L60.7397 48.5601H84.023L88.7189 45.5878L89.0935 44.7273L91.3022 39.7612H89.5677L90.684 37.2436H92.422L95.9625 29.284L94.0935 27.0304L97.5647 25.603L99.3663 21.3926H100.918ZM79.1048 44.7273H72.2262L79.1705 28.9703H86.5772L82.9676 37.2436H81.6115L80.4952 39.7612H81.8691L80.0763 43.8702L79.1048 44.7273ZM91.046 14.6581L92.1862 15.7988L90.8141 18.875H92.7453L91.6289 21.3926H89.6908L87.9571 25.2793L80.7358 25.2524L85.1898 14.6581H91.046Z" fill="#FFFA72"/>
<path d="M26.1751 48.1811L29.7421 55.7666L55.5069 55.6844L80.5291 0H76.287L70.4852 12.8639H65.5992L57.656 30.5352H47.6882L54.3945 15.8227H51.7037L52.9071 13.3051H55.5421L58.1851 7.50675H50.2093L47.6208 13.3051H44.903L43.6997 15.8227H46.4971L39.16 32.2575L40.9859 34.4475H55.8958L48.3734 51.3096H36.5188L34.99 48.1811H31.9473L30.7435 45.6635H33.7602L32.8018 43.7019H24.069L24.9913 45.6635H22.74L23.9433 48.1811H26.1751Z" fill="#FFFA72"/>
<path d="M23.0667 7.20788L25.037 5.86836H72.2554L74.9361 0.0530759H20.4529L16.7224 1.86679L0 38.8637L1.49526 41.8016L33.0149 41.8412L39.5563 27.6508H30.6726L26.6528 36.0272H12.1357L10.891 33.5379L19.0829 15.8227H16.1007L17.304 13.3051H20.2471L23.0667 7.20788Z" fill="#FFFA72"/>
<path fill-rule="evenodd" clip-rule="evenodd" d="M131.453 11.9334L114.056 50.9467H128.279L125.542 47.1144L132.488 31.357H139.894L135.547 41.3213H134.22L133.104 43.8394H134.449L133.393 46.2578L133.386 46.2634L131.342 50.9467H137.339L142.035 47.9745L142.41 47.1144L143.867 43.8394H142.176L143.293 41.3213H144.986L149.278 31.6711L147.41 29.4179L150.881 27.991L156.025 15.9689L151.99 11.9334H131.453ZM145.503 18.185L141.274 27.6656L134.052 27.6395L138.507 17.0447H144.362L145.503 18.185Z" fill="#FFFA72"/>
<path fill-rule="evenodd" clip-rule="evenodd" d="M105.52 53.6436L104.075 56.0316H59.8356L58.4061 59.1478H144.277L149.868 55.5195L155.092 43.8394H153.233L154.349 41.3213H156.218L157.481 38.4957H172.879L177.302 35.5265L178.093 33.7519L181.197 26.7315H179.761L180.877 24.2139H182.31L184.104 20.1545L180.995 15.9119H158.306L146.987 41.3213H145.631L144.514 43.8394H145.866L143.055 50.1489L137.713 53.6436H105.52ZM172.002 26.7315L168.898 33.7519H159.596L165.383 20.6556H174.688L173.115 24.2139H171.804L170.688 26.7315H172.002Z" fill="#FFFA72"/>
<path d="M163.981 69.7494H166.805L170.496 66.1148L171.036 69.75H173.86L180.101 63.6003L186.343 57.4506H183.527L173.491 67.33L172.59 61.2749L166.446 67.33L164.966 57.4506H162.15L163.981 69.7494Z" fill="#7EFADD"/>
<path fill-rule="evenodd" clip-rule="evenodd" d="M197.755 65.1328L199.082 62.0664C200.181 59.5272 198.988 57.4506 196.428 57.45H191.036C188.475 57.45 185.484 59.5272 184.384 62.0664L183.055 65.1328C181.955 67.6721 183.15 69.7494 185.709 69.7494H191.103C193.661 69.7494 196.655 67.6721 197.755 65.1328ZM195.316 65.1328C194.793 66.342 193.369 67.3295 192.151 67.3295H186.757C185.539 67.3295 184.972 66.341 185.495 65.1328L186.822 62.0664C187.345 60.8584 188.77 59.87 189.988 59.87H195.379C196.598 59.87 197.167 60.8584 196.643 62.0664L195.316 65.1328Z" fill="#7EFADD"/>
<path d="M211.112 62.9947L200.428 62.9953L197.503 69.75H199.941L201.818 65.415H207.971L209.663 69.75H212.811L211.074 65.299C213.008 64.8702 214.996 63.2953 215.803 61.4329C216.75 59.2425 215.721 57.4506 213.514 57.4506H202.828L201.779 59.87H212.466C213.327 59.87 213.734 60.5779 213.363 61.4323C212.993 62.2867 211.973 62.9947 211.112 62.9947Z" fill="#7EFADD"/>
<path d="M214.568 69.7494H228.657L229.705 67.33H218.054L222.333 57.4506H219.893L214.568 69.7494Z" fill="#7EFADD"/>
<path fill-rule="evenodd" clip-rule="evenodd" d="M248.441 62.067C249.541 59.5278 248.345 57.4506 245.787 57.4506H235.74L230.415 69.75H240.46C243.02 69.75 246.014 67.6726 247.112 65.1334L248.441 62.067ZM244.674 65.1334C244.151 66.3425 242.726 67.33 241.508 67.33H233.902L237.132 59.8705H244.739C245.955 59.8705 246.524 60.859 246.001 62.067L244.674 65.1334Z" fill="#7EFADD"/>
</svg>
