<svg width="60" height="51" viewBox="0 0 60 51" fill="none" xmlns="http://www.w3.org/2000/svg">
<path opacity="0.5" d="M51.181 32.1522C49.7277 36.625 46.8957 40.5229 43.0909 43.2873C39.2861 46.0517 34.7038 47.5405 30.0007 47.5405C25.2977 47.5405 20.7154 46.0517 16.9106 43.2873C13.1058 40.5229 10.2738 36.625 8.82045 32.1522" stroke="#FFFA72" stroke-width="6"/>
<path opacity="0.5" d="M8.82045 18.3884C10.2738 13.9155 13.1058 10.0176 16.9106 7.25324C20.7154 4.48888 25.2977 3 30.0007 3C34.7038 3 39.2861 4.48888 43.0909 7.25324C46.8957 10.0176 49.7277 13.9155 51.181 18.3884" stroke="#FFFA72" stroke-width="6"/>
<path d="M9.83251 30.3779V20.2979H19.1145V22.1599H11.6945V24.3999H17.6585V26.2759H11.6945V28.5159H19.1145V30.3779H9.83251ZM26.4453 33.5979V30.3779H21.9513C21.5873 30.3779 21.2606 30.2893 20.9713 30.1119C20.6819 29.9346 20.4486 29.7013 20.2713 29.4119C20.1033 29.1226 20.0193 28.8006 20.0193 28.4459V24.1899C20.0193 23.8353 20.1033 23.5133 20.2713 23.2239C20.4486 22.9346 20.6819 22.7013 20.9713 22.5239C21.2606 22.3466 21.5873 22.2579 21.9513 22.2579H28.2793V33.5979H26.4453ZM22.0353 28.5439H26.2773C26.3239 28.5439 26.3613 28.5299 26.3893 28.5019C26.4266 28.4646 26.4453 28.4226 26.4453 28.3759V24.2599C26.4453 24.2133 26.4266 24.1759 26.3893 24.1479C26.3613 24.1106 26.3239 24.0919 26.2773 24.0919H22.0353C21.9886 24.0919 21.9466 24.1106 21.9093 24.1479C21.8813 24.1759 21.8673 24.2133 21.8673 24.2599V28.3759C21.8673 28.4226 21.8813 28.4646 21.9093 28.5019C21.9466 28.5299 21.9886 28.5439 22.0353 28.5439ZM31.4367 30.3779C31.082 30.3779 30.7554 30.2893 30.4567 30.1119C30.1674 29.9346 29.934 29.7013 29.7567 29.4119C29.5887 29.1226 29.5047 28.8006 29.5047 28.4459V22.2579H31.3387V28.3759C31.3387 28.4226 31.3527 28.4646 31.3807 28.5019C31.418 28.5299 31.46 28.5439 31.5067 28.5439H35.7487C35.7954 28.5439 35.8327 28.5299 35.8607 28.5019C35.898 28.4646 35.9167 28.4226 35.9167 28.3759V22.2579H37.7507V28.4459C37.7507 28.8006 37.662 29.1226 37.4847 29.4119C37.3167 29.7013 37.088 29.9346 36.7987 30.1119C36.5094 30.2893 36.1827 30.3779 35.8187 30.3779H31.4367ZM39.2251 30.3779V22.2579H41.0591V30.3779H39.2251ZM39.2251 21.4459V19.5979H41.0591V21.4459H39.2251ZM42.4386 33.5979V22.2579H48.7526C49.1073 22.2579 49.4293 22.3466 49.7186 22.5239C50.0173 22.7013 50.2506 22.9346 50.4186 23.2239C50.596 23.5133 50.6846 23.8353 50.6846 24.1899V28.4459C50.6846 28.8006 50.596 29.1226 50.4186 29.4119C50.2506 29.7013 50.0173 29.9346 49.7186 30.1119C49.4293 30.2893 49.1073 30.3779 48.7526 30.3779H44.2726V33.5979H42.4386ZM44.4406 28.5439H48.6826C48.7293 28.5439 48.7666 28.5299 48.7946 28.5019C48.832 28.4646 48.8506 28.4226 48.8506 28.3759V24.2599C48.8506 24.2133 48.832 24.1759 48.7946 24.1479C48.7666 24.1106 48.7293 24.0919 48.6826 24.0919H44.4406C44.394 24.0919 44.352 24.1106 44.3146 24.1479C44.2866 24.1759 44.2726 24.2133 44.2726 24.2599V28.3759C44.2726 28.4226 44.2866 28.4646 44.3146 28.5019C44.352 28.5299 44.394 28.5439 44.4406 28.5439Z" fill="#FFFA72"/>
</svg>
