<svg width="24" height="24" viewBox="0 0 24 24" fill="none" xmlns="http://www.w3.org/2000/svg">
<path d="M21 7V10L20 8H14.5L12 5H19C20.1046 5 21 5.89543 21 7Z" fill="#E057C2"/>
<path d="M21.5 8V10L20 8H14.5L13 6H19.5C20.6046 6 21.5 6.89543 21.5 8Z" fill="#FFFA72"/>
<path d="M5 19H19C20.1046 19 21 18.1046 21 17V10C21 8.89543 20.1046 8 19 8H15.0704C14.4017 8 13.7772 7.6658 13.4063 7.1094L12.5937 5.8906C12.2228 5.3342 11.5983 5 10.9296 5H5C3.89543 5 3 5.89543 3 7V17C3 18.1046 3.89543 19 5 19Z" stroke="#7EFADD" stroke-width="2"/>
</svg>
