<svg width="32" height="32" viewBox="0 0 32 32" fill="none" xmlns="http://www.w3.org/2000/svg">
<g id="Info" opacity="0.5">
<path id="Polygon 1" d="M23.9793 14.5C24.5152 15.4282 24.5152 16.5718 23.9793 17.5L21.2887 22.1603C20.7528 23.0885 19.7624 23.6603 18.6906 23.6603L13.3094 23.6603C12.2376 23.6603 11.2472 23.0885 10.7113 22.1603L8.02072 17.5C7.48483 16.5718 7.48483 15.4282 8.02072 14.5L10.7113 9.83974C11.2472 8.91154 12.2376 8.33974 13.3094 8.33975L18.6906 8.33975C19.7624 8.33975 20.7528 8.91154 21.2887 9.83975L23.9793 14.5Z" stroke="#70718A" stroke-width="2"/>
<rect id="Rectangle 39405" x="15" y="15" width="2" height="6" rx="1" fill="#70718A"/>
<rect id="Rectangle 39407" x="15" y="15" width="3" height="2" rx="1" fill="#70718A"/>
<rect id="Rectangle 39406" x="15" y="12" width="2" height="2" rx="1" fill="#70718A"/>
</g>
</svg>
