<svg width="24" height="25" viewBox="0 0 24 25" fill="none" xmlns="http://www.w3.org/2000/svg">
<path d="M21.9793 11C22.5152 11.9282 22.5152 13.0718 21.9793 14L18.2887 20.3923C17.7528 21.3205 16.7624 21.8923 15.6906 21.8923L8.3094 21.8923C7.2376 21.8923 6.24722 21.3205 5.71132 20.3923L2.02073 14C1.48483 13.0718 1.48483 11.9282 2.02072 11L5.71132 4.60769C6.24722 3.67949 7.2376 3.10769 8.3094 3.10769L15.6906 3.1077C16.7624 3.1077 17.7528 3.67949 18.2887 4.6077L21.9793 11Z" stroke="#7EFADD" stroke-width="2"/>
<rect x="10.7998" y="11.3" width="2.4" height="7.2" rx="1.2" fill="#7EFADD"/>
<rect x="10.7998" y="11.3" width="3.6" height="2.4" rx="1.2" fill="#7EFADD"/>
<rect x="10.7998" y="7.69995" width="2.4" height="2.4" rx="1.2" fill="#7EFADD"/>
</svg>
