<svg width="24" height="24" viewBox="0 0 24 24" fill="none" xmlns="http://www.w3.org/2000/svg">
<g id="Group 1000001381">
<path id="Path 4461" d="M11.9992 2C9.34728 2 6.80393 3.05349 4.92871 4.92871C3.05349 6.80393 2 9.34728 2 11.9992C1.9998 13.3125 2.25829 14.6129 2.76071 15.8262C3.26313 17.0396 3.99964 18.1421 4.92817 19.0708C5.85671 19.9994 6.95908 20.7361 8.17234 21.2387C9.38561 21.7413 10.686 22 11.9992 22C13.3126 22.0002 14.6132 21.7417 15.8266 21.2391C17.04 20.7366 18.1426 20 19.0713 19.0713C20 18.1426 20.7366 17.04 21.2391 15.8266C21.7417 14.6132 22.0002 13.3126 22 11.9992C22 10.686 21.7413 9.38561 21.2387 8.17234C20.7361 6.95908 19.9994 5.85671 19.0708 4.92817C18.1421 3.99964 17.0396 3.26313 15.8262 2.76071C14.6129 2.25829 13.3125 1.9998 11.9992 2ZM11.056 17.0568C10.8074 16.8057 10.6678 16.4668 10.6674 16.1135V14.7802C10.6677 14.5421 10.6043 14.3083 10.4837 14.1031C10.3631 13.8978 10.1898 13.7286 9.98172 13.613C9.38133 13.2792 8.528 12.8206 7.94895 12.525C7.4692 12.2837 7.02428 11.9788 6.62629 11.6183L6.59581 11.5863C6.31075 11.3321 6.0584 11.0434 5.84457 10.7269C5.5139 10.2408 5.01714 9.50781 4.62552 8.91505C5.04259 7.9253 5.65377 7.02917 6.42298 6.2796C7.19218 5.53002 8.10381 4.9422 9.104 4.55086L9.69981 4.85562C9.80148 4.90715 9.91466 4.93178 10.0286 4.92716C10.1424 4.92255 10.2533 4.88884 10.3504 4.82925C10.4476 4.76967 10.5279 4.68619 10.5836 4.58677C10.6394 4.48736 10.6688 4.37532 10.669 4.26133V4.12572C11.1081 4.04643 11.5531 4.00412 11.9992 3.99924L12.8632 4.86324C12.9871 4.98896 13.0565 5.15837 13.0565 5.33486C13.0565 5.51135 12.9871 5.68075 12.8632 5.80648L12.6667 5.99848L12.237 6.43733C12.2056 6.46786 12.1807 6.50435 12.1637 6.54465C12.1467 6.58496 12.138 6.62826 12.138 6.672C12.138 6.71574 12.1467 6.75905 12.1637 6.79935C12.1807 6.83965 12.2056 6.87614 12.237 6.90667L12.429 7.10476C12.4603 7.13529 12.4852 7.17178 12.5022 7.21208C12.5192 7.25239 12.528 7.29569 12.528 7.33943C12.528 7.38317 12.5192 7.42647 12.5022 7.46678C12.4852 7.50708 12.4603 7.54357 12.429 7.5741L12.0952 7.90781C12.0651 7.93879 12.0291 7.96349 11.9893 7.98049C11.9496 7.99748 11.9069 8.00645 11.8636 8.00686H11.4842C11.3976 8.00681 11.3144 8.04073 11.2526 8.10133L10.8381 8.5021C10.7892 8.55296 10.7567 8.61741 10.745 8.68702C10.7333 8.75662 10.7429 8.82813 10.7726 8.89219L11.4232 10.189C11.4493 10.2404 11.4616 10.2977 11.459 10.3552C11.4563 10.4128 11.4388 10.4688 11.4081 10.5176C11.3774 10.5664 11.3346 10.6064 11.2838 10.6337C11.2331 10.661 11.1761 10.6748 11.1185 10.6735H10.8945C10.8127 10.6728 10.7339 10.6431 10.672 10.5897L10.2895 10.2469C10.2015 10.1708 10.0953 10.1189 9.98129 10.0962C9.86724 10.0735 9.74925 10.0808 9.63886 10.1173L8.3421 10.5516C8.24229 10.5844 8.15539 10.6479 8.09381 10.733C8.03224 10.8181 7.99914 10.9205 7.99924 11.0255C7.99894 11.1181 8.02483 11.2088 8.0739 11.2873C8.12297 11.3657 8.19323 11.4287 8.27657 11.469L8.73372 11.7036C9.1277 11.8977 9.56079 11.9994 10 12.0008C10.4389 12.0008 10.9387 13.136 11.3318 13.3341H14.1128C14.4663 13.3345 14.8054 13.4748 15.056 13.7242L15.6259 14.2926C15.8641 14.5319 15.9983 14.8555 15.9992 15.1931C15.9976 15.7076 15.7927 16.2005 15.4293 16.5646C15.2632 16.7261 15.0956 16.8922 14.9554 17.0339C14.8317 17.158 14.7429 17.3125 14.6979 17.4819C14.6448 17.7194 14.5792 17.9538 14.5013 18.1844L13.9162 19.757C13.2894 19.9152 12.6457 19.9966 11.9992 19.9992V19.1916C11.9734 18.3846 11.6352 17.6192 11.056 17.0568ZM19.0438 12.7596C18.8023 12.6992 18.592 12.5509 18.4541 12.3436L17.7029 11.219C17.5941 11.0554 17.5361 10.8632 17.5361 10.6667C17.5361 10.4701 17.5941 10.278 17.7029 10.1143L18.5196 8.88457C18.6168 8.74099 18.7489 8.62456 18.9036 8.54629L19.1474 8.42438C19.7076 9.53285 19.9999 10.7573 20.0008 11.9992C19.9986 12.3274 19.9762 12.6551 19.9337 12.9806L19.0438 12.7596Z" fill="#7EFADD"/>
</g>
</svg>
