<svg width="24" height="25" viewBox="0 0 24 25" fill="none" xmlns="http://www.w3.org/2000/svg">
<g id="Sales">
<g id="Group 35183">
<path id="Vector 181" d="M5 11.5V21.5C5 22.0523 5.44772 22.5 6 22.5H18C18.5523 22.5 19 22.0523 19 21.5V11.5" stroke="#7EFADD" stroke-width="1.5" stroke-linecap="round"/>
<circle id="Ellipse 13" cx="12" cy="5.5" r="3" stroke="#FFFA72" stroke-width="2" stroke-linecap="round"/>
<path id="Rectangle 190" d="M20.1658 11.8317C20.0642 11.6284 19.8564 11.5 19.6292 11.5H13L14.8342 15.1683C14.9358 15.3716 15.1436 15.5 15.3708 15.5H21.0292C21.4752 15.5 21.7653 15.0306 21.5658 14.6317L20.1658 11.8317Z" fill="#0A0316" stroke="#E057C2" stroke-width="1.5" stroke-linecap="round"/>
<path id="Rectangle 191" d="M3.83416 11.8317C3.9358 11.6284 4.14356 11.5 4.37082 11.5H11L9.16584 15.1683C9.0642 15.3716 8.85644 15.5 8.62918 15.5H2.97082C2.52479 15.5 2.23469 15.0306 2.43416 14.6317L3.83416 11.8317Z" fill="#0A0316" stroke="#FFFA72" stroke-width="1.5" stroke-linecap="round"/>
</g>
</g>
</svg>
