<svg width="24" height="25" viewBox="0 0 24 25" fill="none" xmlns="http://www.w3.org/2000/svg">
<g id="Recently Sold">
<g id="Group 35186">
<path id="Union" fill-rule="evenodd" clip-rule="evenodd" d="M14.5423 5.63495L17.1127 2.57174L20.5171 5.42842L20.517 5.42858C22.8672 7.40077 21.8947 12.4289 18.3449 16.6594C14.7951 20.8899 10.0121 22.7207 7.66183 20.7486C7.65257 20.7408 7.64337 20.733 7.63422 20.7252L4.25759 17.8918L6.82766 14.8289C7.36757 13.1 8.38645 11.2426 9.83379 9.51769C11.2811 7.79282 12.9335 6.46687 14.5423 5.63495Z" fill="#FFFA72"/>
<path id="Intersect" fill-rule="evenodd" clip-rule="evenodd" d="M16.8869 18.1973C13.9258 20.9769 10.5103 22.196 8.3612 21.196L4.88232 18.2769L9.88152 12.319L16.8869 18.1973Z" fill="#FFFA72"/>
<path id="Ellipse 14" d="M16.7893 2.95484C17.7621 3.77118 18.1241 5.29215 17.7463 7.24543C17.3722 9.17969 16.2865 11.4186 14.5557 13.4813C12.8249 15.544 10.8085 17.0021 8.96857 17.7063C7.11056 18.4175 5.54986 18.3252 4.57697 17.5089C3.60409 16.6925 3.24217 15.1716 3.61992 13.2183C3.99399 11.284 5.07975 9.0451 6.81056 6.9824C8.54137 4.9197 10.5577 3.46164 12.3977 2.75738C14.2557 2.04618 15.8164 2.13849 16.7893 2.95484Z" fill="#0A0316" stroke="#FFFA72"/>
</g>
</g>
</svg>
