<svg width="24" height="24" viewBox="0 0 24 24" fill="none" xmlns="http://www.w3.org/2000/svg">
<path d="M19.1875 7.42324H6.68708C6.43958 7.42324 6.20221 7.51318 6.0272 7.67327C5.85218 7.83337 5.75386 8.0505 5.75386 8.27691C5.75386 8.50332 5.85218 8.72045 6.0272 8.88055C6.20221 9.04064 6.43958 9.13059 6.68708 9.13059H19.1875C19.3101 9.13059 19.4314 9.15267 19.5446 9.19557C19.6579 9.23847 19.7607 9.30135 19.8474 9.38062C19.9341 9.45989 20.0028 9.554 20.0497 9.65757C20.0966 9.76115 20.1207 9.87215 20.1207 9.98426V17.4283C20.1207 17.6547 20.0224 17.8718 19.8474 18.0319C19.6724 18.192 19.435 18.282 19.1875 18.282H5.43774C5.02407 18.2817 4.62736 18.1315 4.33442 17.8644C4.04147 17.5972 3.87614 17.2347 3.8746 16.8563V7.13725C3.87491 6.75811 4.03969 6.39457 4.33277 6.12647C4.62585 5.85837 5.02326 5.70763 5.43774 5.70735H19.8116C20.0591 5.70735 20.2965 5.61741 20.4715 5.45731C20.6465 5.29722 20.7448 5.08008 20.7448 4.85368C20.7448 4.62727 20.6465 4.41013 20.4715 4.25004C20.2965 4.08994 20.0591 4 19.8116 4H5.43774C4.52769 4.00084 3.65506 4.33141 3.01079 4.91936C2.36652 5.50731 2.00308 6.30478 2 7.13725V16.8563C2.00124 17.6899 2.36386 18.489 3.00832 19.0784C3.65279 19.6677 4.52648 19.9992 5.43774 20H19.1875C19.9332 19.9992 20.648 19.7278 21.1752 19.2455C21.7025 18.7632 21.9991 18.1093 22 17.4272V9.996C21.9991 9.31392 21.7025 8.66002 21.1752 8.17772C20.648 7.69541 19.9332 7.42408 19.1875 7.42324ZM18.2543 13.7116C18.2543 13.4082 18.1226 13.1173 17.888 12.9027C17.6535 12.6882 17.3354 12.5677 17.0038 12.5677C16.6721 12.5677 16.3541 12.6882 16.1195 12.9027C15.885 13.1173 15.7533 13.4082 15.7533 13.7116C15.7548 14.0133 15.8866 14.3023 16.1199 14.5155C16.3533 14.7288 16.6693 14.8491 16.9991 14.8502C17.3298 14.8502 17.647 14.7304 17.8813 14.517C18.1157 14.3037 18.2481 14.0141 18.2496 13.7116H18.2543Z" fill="#0A0316"/>
</svg>
